<svg id="Layer_1" enable-background="new 0 0 104 104" width="inherit" height="inherit" fill="currentcolor" color="pink" viewBox="0 0 104 104" xmlns="http://www.w3.org/2000/svg"><path d="m97.71 62.65h-.71v-6.72c0-.41-.34-.75-.75-.75h-5.52c-.42 0-.75.34-.75.75v6.72h-.71c-.42 0-.75.34-.75.75v10.11c0 2.48 1.83 4.53 4.22 4.89v13.58c0 4.01-3.26 7.27-7.27 7.27-1.95 0-3.77-.76-5.14-2.14-1.38-1.36-2.13-3.18-2.13-5.13v-21.1c0-4.84-3.94-8.78-8.77-8.78-4.84 0-8.78 3.94-8.78 8.78v21.1c0 4.01-3.26 7.27-7.27 7.27s-7.27-3.26-7.27-7.27v-28.37h1.25c1.59 0 2.88-1.3 2.88-2.89v-12.99c1.08-.24 2.02-.91 2.59-1.88l5.5-9.39c7.94-3.44 18.94-11.82 26.81-32.19.09-.23.06-.49-.08-.69-.14-.21-.37-.33-.62-.33h-9.49c-.32 0-.61.21-.71.52-.1.29-.21.57-.31.86-2.96-.32-14.07-.96-17.15 6.59-.73 1.79-2.05 4.56-4.71 6.15-4.01 2.39-8.35 2.55-12.26 0-2-1.3-3.58-3.37-4.72-6.15-3.32-8.16-16.54-6.75-18.26-6.53-.11-.31-.23-.61-.34-.92-.1-.31-.39-.52-.71-.52h-9.49c-.25 0-.48.12-.62.33-.14.2-.17.46-.08.69 7.89 20.34 18.88 28.73 26.81 32.19l5.5 9.39c.57.97 1.52 1.64 2.59 1.88v12.99c0 1.59 1.3 2.89 2.89 2.89h1.23v28.37c0 4.84 3.94 8.77 8.77 8.77 4.84 0 8.77-3.93 8.77-8.77v-21.1c0-4.01 3.27-7.28 7.28-7.28 4 0 7.27 3.27 7.27 7.28v21.1c0 2.35.91 4.55 2.57 6.19 1.65 1.67 3.85 2.58 6.2 2.58 4.83 0 8.77-3.93 8.77-8.77v-13.58c2.38-.36 4.22-2.41 4.22-4.89v-10.11c0-.41-.34-.75-.75-.75zm-48.97-5.64h-6.75v-3.54h6.75zm-11.64-39.93c.59.58 1.21 1.11 1.89 1.55 2.2 1.43 4.54 2.16 6.95 2.16s4.75-.73 6.95-2.16c.46-.31.9-.65 1.32-1.02.22.7.18 1.47-.12 2.15-.35.78-.99 1.35-1.79 1.62-4 1.34-8.55 1.28-13.51-.19-1.26-.37-2.17-1.42-2.22-2.55-.02-.57.16-1.08.53-1.56zm-29.71-12.33h7.85c5.47 15.98 16.43 25.13 30.14 25.13 13.33 0 24.04-8.68 29.64-23.87.13-.11.4-1.05.47-1.26h7.85c-7.7 19.28-18.21 27.17-25.76 30.4-8.1 1.74-16.32 1.74-24.43 0-7.54-3.24-18.04-11.15-25.76-30.4zm28.34 34.43-1.32-2.27c3.64.68 7.3 1.05 10.96 1.05s7.32-.37 10.96-1.05l-1.33 2.27h-19.27c.01 0 .01 0 0 0zm3.47 5.91-.54-.91h13.41l-.53.91c-.45.76-1.27 1.24-2.16 1.24h-8.03c-.88 0-1.71-.48-2.15-1.24zm56.3 17.56h-4.02v-5.97h4.02z"></path></svg>