  <svg id="Layer_1" enable-background="new 0 0 104 104" width="inherit" height="inherit" color ="black" fill="currentcolor" viewBox="0 0 104 104" xmlns="http://www.w3.org/2000/svg"><g><path d="m73.21 62.99c-10.13 0-18.37 8.24-18.37 18.37 0 10.14 8.24 18.39 18.37 18.39s18.38-8.25 18.38-18.39c0-10.13-8.25-18.37-18.38-18.37zm0 35.26c-9.31 0-16.87-7.58-16.87-16.89 0-9.3 7.56-16.87 16.87-16.87s16.88 7.57 16.88 16.87c0 9.31-7.57 16.89-16.88 16.89z"></path><path d="m75.03 79.03c0-.41-.34-.75-.76-.75-1.04 0-2.02-.41-2.75-1.14-.74-.74-1.15-1.72-1.15-2.76 0-.42-.33-.75-.75-.75-.41 0-.75.33-.75.75 0 1.04-.4 2.02-1.14 2.76-.74.73-1.72 1.14-2.76 1.14-.41 0-.75.34-.75.75s.34.75.75.75c1.05 0 2.03.4 2.76 1.15.74.72 1.14 1.7 1.14 2.75 0 .41.34.75.75.75.42 0 .75-.34.75-.75 0-2.15 1.75-3.9 3.9-3.9.42 0 .76-.34.76-.75z"></path><path d="m81.46 84.37c-.67 0-1.3-.26-1.77-.73s-.73-1.1-.73-1.77c0-.41-.34-.75-.75-.75-.42 0-.75.34-.75.75 0 .67-.26 1.3-.73 1.77-.48.47-1.1.73-1.77.73-.41 0-.75.34-.75.75s.34.75.75.75c.67 0 1.3.26 1.77.73s.73 1.09.73 1.76c0 .42.33.75.75.75.41 0 .75-.33.75-.75 0-1.37 1.12-2.49 2.5-2.49.41 0 .75-.34.75-.75s-.34-.75-.75-.75z"></path><path d="m82.17 74.19h-.71v-.71c0-.41-.34-.75-.75-.75s-.75.34-.75.75v.71h-.71c-.41 0-.75.34-.75.75s.34.75.75.75h.71v.71c0 .41.34.75.75.75s.75-.34.75-.75v-.71h.71c.41 0 .75-.34.75-.75s-.34-.75-.75-.75z"></path><path d="m67.9 87.15h-.35v-.35c0-.41-.34-.75-.75-.75s-.75.34-.75.75v.35h-.35c-.41 0-.75.34-.75.75s.34.75.75.75h.35v.36c0 .41.34.75.75.75s.75-.34.75-.75v-.36h.35c.41 0 .75-.34.75-.75s-.34-.75-.75-.75z"></path><path d="m64.89 72.83v-.36h.35c.41 0 .75-.34.75-.75s-.34-.75-.75-.75h-.35v-.35c0-.41-.34-.75-.75-.75s-.75.34-.75.75v.35h-.35c-.41 0-.75.34-.75.75s.34.75.75.75h.35v.36c0 .41.34.75.75.75s.75-.33.75-.75z"></path><path d="m80.59 92.39h-.35v-.36c0-.41-.34-.75-.75-.75s-.75.34-.75.75v.36h-.35c-.41 0-.75.34-.75.75s.34.75.75.75h.35v.35c0 .41.34.75.75.75s.75-.34.75-.75v-.35h.35c.41 0 .75-.34.75-.75s-.34-.75-.75-.75z"></path><path d="m51.5 83.31c-.05-.41-.43-.7-.84-.66-1.09.13-2.29.19-3.57.19-16.72 0-23.97-11.89-27.1-22.02 3.08-5.28 8.72-8.54 14.83-8.54 3.34 0 6.59.96 9.37 2.78.68.45 2.16.99 2.16 1.08v17.29c0 .41.34.75.76.75s.74-.34.74-.75v-17.29c0-.09 1.52-.65 2.22-1.1 2.93-1.91 6.34-2.86 9.84-2.76 5.14.14 10.1 2.76 13.25 7 .25.34.73.41 1.05.16.34-.25.4-.72.16-1.05-2.4-3.23-5.78-5.6-9.52-6.77-1.24-6.63-6.17-12.09-12.68-13.97-.26-.09-.56-.13-.84-.13-1.58 0-2.86 1.28-2.86 2.85 0 .78.32 1.53.88 2.05.62.6.97 1.42.97 2.3 0 1.78-1.43 3.23-3.21 3.23-1.79 0-3.24-1.45-3.24-3.23 0-.87.36-1.69.98-2.3.55-.53.86-1.27.86-2.05 0-.9-.42-1.73-1.14-2.27-.74-.55-1.66-.72-2.56-.46-6.48 1.88-11.42 7.33-12.68 13.97-3.98 1.24-7.51 3.79-9.9 7.3-.16-.58-.32-1.19-.46-1.82-.78-3.33-.7-6.86.2-10.22 1.12-4.13 2.49-7.74 4.07-10.89.43.18.93.29 1.45.29.66 0 1.36-.15 2.02-.47 1.08-.53 2.22-1.04 3.4-1.5 1.14-.46 1.96-1.29 2.34-2.23.6.37 1.34.58 2.12.58.38 0 .76-.05 1.14-.15 1.36-.32 2.54-.57 3.68-.75 1.22-.21 2.2-.86 2.77-1.72.73.68 1.75 1.12 2.91 1.12h.17c1.26-.05 2.47-.05 3.73 0 1.2.03 2.32-.41 3.08-1.13.56.87 1.56 1.52 2.78 1.74 1.12.17 2.32.42 3.66.74.38.1.76.14 1.14.14.78 0 1.53-.2 2.14-.58.39.95 1.2 1.79 2.34 2.24 1.18.46 2.32.97 3.42 1.51.64.31 1.34.46 1.98.46.52 0 1.02-.1 1.46-.29 1.58 3.16 2.93 6.77 4.04 10.89.94 3.34 1.02 6.88.24 10.2-.07.23-.44 1.88-.44 1.88 0 .41.32.74.74.74l4.96 1.12c.41.04.78-.24.83-.65.52-4.3.47-7.14.46-7.23.35-25.57-10.99-41.24-20.81-46.88-2.84-1.64-5.24-2.2-6.4-1.5-3.08 1.81-7.45 2.09-7.45 2.1-.05-.01-4.42-.27-7.51-2.1-1.17-.71-3.58-.14-6.43 1.51-9.81 5.65-21.14 21.32-20.79 46.84-.01.38-.49 37.52 27.69 45.83 2.29.68 4.65 1.02 7.01 1.02 2.35 0 4.71-.34 7-1.02 1.12-.32 2.14-.68 3.11-1.07.38-.16.57-.59.41-.98zm-21.95-50.41c-1.2.48-2.39 1.01-3.5 1.55-.73.35-1.52.41-2.14.19 1.72-3.15 3.68-5.78 5.91-7.9.43 1.23.87 2.46 1.29 3.71.32.91-.36 1.99-1.56 2.45zm9.58-2.63c-1.14.19-2.38.44-3.78.78-1.24.31-2.48-.17-2.82-1.08-.48-1.43-.98-2.86-1.5-4.28 2.72-2.26 5.8-3.82 9.26-4.68.08.13.78 5.97.92 7.17.08.96-.82 1.88-2.08 2.09zm12.4-2.26c-.12.97-1.22 1.68-2.5 1.64-1.29-.05-2.56-.05-3.85 0-1.27.04-2.36-.67-2.49-1.63-.14-1.21-.74-7.23-.64-7.39 4.58-1 8.5-.28 10.11 0 .09.19-.5 6.21-.63 7.38zm10.14 1.95c-.34.92-1.58 1.4-2.82 1.08-1.38-.33-2.61-.58-3.77-.76-1.26-.22-2.17-1.14-2.07-2.09.14-1.17.84-7.05.9-7.18 3.46.86 6.54 2.42 9.26 4.69-.51 1.42-1.01 2.83-1.5 4.26zm6.5 4.5c-1.12-.55-2.3-1.08-3.51-1.56-1.19-.47-1.87-1.54-1.57-2.45.42-1.24.86-2.46 1.31-3.69 2.21 2.11 4.17 4.75 5.87 7.89-.61.21-1.38.14-2.1-.19z"></path></g></svg>