 <svg id="Layer_1" enable-background="new 0 0 104 104" width="inherit" height="inherit" color= "pink" fill="currentcolor" viewBox="0 0 104 104" xmlns="http://www.w3.org/2000/svg"><g><path d="m87.17 43.49h-5.32c.75-1.74 1.45-3.55 2.07-5.39 1.29-3.81 2.24-7.26 2.92-10.57.83-3.98 1.17-7.2 1.1-10.14-.08-3.51-.77-6.22-2.12-8.27-3.23-4.94-9.57-5.52-18.86-1.73-.57.23-1.57.69-2.97 1.35-2.53-1.34-8.05-4.12-11.8-4.86-3.62-.71-7.08-.35-10.29 1.06-1.75.78-3.5 1.93-5.33 3.51-9.29-3.68-15.55-2.81-18.61 2.58-1.89 3.3-1.97 7.32-1.87 10.05.13 3.62.76 7.51 1.98 12.22.83 3.2 1.81 6.07 3.01 8.78.2.47.43.94.66 1.42h-4.89c-.42 0-.76.33-.76.75 0 .41.34.75.76.75h5.59c.05.1.27.63.68 1.65.51 1.3.75 2.78.88 4.34.29 3.5-.14 7.07-.56 10.52-.32 2.67-.66 5.43-.66 8.18-.01 2.36.37 4.61.8 6.89.5 2.62 1.05 4.95 1.69 7.12.87 2.97 1.87 5.5 3.05 7.71.68 1.29 1.44 2.48 2.25 3.52l.07.09c.76.99 1.7 2.22 3.16 2.55 1.47.33 3.02-.33 3.93-1.69.67-1 .82-2.22.96-3.3l.43-7.32c.16-4.57.33-9.76 3.01-13.59.06-.08.12-.16.17-.24.02 3.21.32 7.13.86 11.05.83 8.02 3.6 15.11 6.71 17.24.72.51 1.52.78 2.3.78.33 0 .64-.04.89-.12 4.67-1.14 6.07-10.4 6.42-17.96.22-4.68.97-8.75 2.24-12.13.14.34.27.66.37.97.5 1.49.88 3.07 1.16 4.85.51 3.27.59 6.66.67 9.94 0 0 .14 5.99.14 6.2 0 1.2-.01 2.55.84 3.62 1.25 1.56 3.39 1.59 4.86.95 1.48-.64 2.47-1.92 3.29-3.06 6.9-9.68 6.71-21.45 6.53-32.84-.03-1.99-.06-3.97-.06-5.92 0-1.71.03-3.47.17-5.18.22-2.71 1.48-4.73 1.52-4.82h5.98c.42 0 .76-.34.76-.75-.02-.43-.36-.76-.78-.76zm-64.73-2.03c-1.16-2.64-2.12-5.44-2.93-8.55-1.19-4.61-1.81-8.39-1.94-11.9-.15-4.05.38-6.99 1.67-9.25 2.67-4.71 8.44-5.3 17.15-1.77.03.01 5.83 1.19 5.83 1.19l-4.16-2.03c1.53-1.25 2.99-2.2 4.43-2.84 2.92-1.29 6.08-1.61 9.39-.96 3.3.65 8.14 3.02 10.79 4.4l-1.58 1.43s3.23-.96 3.23-.96c1.5-.71 2.61-1.21 3.18-1.45 8.52-3.48 14.26-3.09 17.04 1.17 1.19 1.81 1.8 4.26 1.88 7.49.08 2.82-.26 5.94-1.06 9.8-.67 3.24-1.61 6.64-2.88 10.39-.64 1.9-1.37 3.78-2.15 5.58-.04.1-.09.2-.13.29h-6.3c.92-1.86 2.31-3.4 3.06-8.76.41-2.91-1.26-6.44-3.63-8.93-1.58-1.67-4.29-3.65-8.26-3.65-6.09 0-11.1 3.11-13.06 7.84-1.26-3.07-3.79-5.48-7.24-6.8-1.09-.41-2.24-.7-3.43-.87-.76-.11-1.57-.17-2.41-.17-3.96 0-6.67 1.98-8.24 3.64-2.37 2.49-3.8 6-3.64 8.94.09 1.72.82 5.93 2.31 8.76h-5.96c-.02-.04-.72-1.47-.96-2.03zm44.51 2.03c-.3 0-.56.17-.69.45l-1.51 3.49-1.62-4.29c-.1-.29-.37-.48-.68-.49-.3-.03-.58.16-.7.44l-1.52 3.3-1.44-13.76c-.04-.37-.34-.65-.7-.67-.38-.03-.7.23-.78.59l-3.24 14.92-3-3.7c-.16-.21-.44-.32-.7-.27-.28.04-.5.23-.58.49l-2.6 7.37-4.12-18.81c-.06-.33-.34-.58-.68-.59-.32-.02-.66.19-.76.52l-3.54 11.01h-7.11c0-.11-.02-.21-.08-.31-1.01-1.5-2.26-6.93-2.34-8.53-.13-2.51 1.17-5.65 3.23-7.83 1.37-1.45 3.73-3.17 7.16-3.17.77 0 1.5.05 2.2.15 1.08.15 2.13.42 3.11.79 3.88 1.48 6.44 4.5 7.03 8.29.06.37.37.63.74.63s.68-.27.74-.64c.84-5.44 5.9-9.23 12.32-9.23 3.44 0 5.8 1.73 7.17 3.18 2.06 2.17 3.42 5.32 3.22 7.82-.31 3.81-2.3 6.75-3.13 8.65-.03.06-.03.12-.04.18h-5.36zm11.23 6.16c-.17 1.79-.17 3.59-.17 5.33-.01 1.96.02 3.94.06 5.95.18 11.14.37 22.66-6.25 31.94-.73 1.03-1.54 2.07-2.67 2.56-.99.43-2.37.39-3.08-.51-.52-.66-.52-1.69-.51-2.69 0-.23-.14-6.24-.14-6.24-.08-3.33-.16-6.77-.68-10.14-.3-1.86-.7-3.52-1.22-5.09-.28-.82-.66-1.68-1.19-2.68-.01-.02-.03-.03-.04-.04.16-.56.34-1.11.54-1.66.4-1.1.86-2.18 1.45-3.2-.79.88-1.48 1.86-2.12 2.87-.4.65-1.76 3.45-1.76 3.5-1.37 3.56-2.18 7.85-2.4 12.78-.46 9.83-2.38 15.87-5.32 16.59-.55.17-1.28.02-1.94-.44-2.7-1.84-5.31-8.79-6.08-16.18-.64-4.6-.93-9.15-.83-12.54.03-.11.03-.22.01-.34-.39-1.69-.41-3.55-.33-5.38-.52 1.62-.97 3.29-1.12 5.08-.55.52-1.06 1.08-1.48 1.69-2.93 4.19-3.11 9.61-3.27 14.39l-.42 7.19c-.12.96-.25 1.95-.72 2.65-.56.84-1.49 1.25-2.35 1.06-.93-.21-1.66-1.16-2.3-2l-.1-.1c-.76-.97-1.47-2.09-2.11-3.3-1.13-2.12-2.09-4.55-2.93-7.43-.62-2.13-1.16-4.41-1.65-6.98-.42-2.21-.79-4.38-.78-6.61.01-2.66.34-5.38.65-8 .43-3.52.87-7.17.56-10.82-.14-1.68-.46-3.26-.96-4.69-.13-.4-.3-.79-.47-1.17h6.89c.74 1.18 20.58 21.17 20.6 21.18.12.1.28.15.44.15s.32-.05.46-.15c.02-.02 19.84-20 20.58-21.18h6.5c-.59 1.34-1.16 2.83-1.35 4.65z"></path><path d="m38.98 18.2c1.5-.06 2.95-.43 4.35-.91 1.39-.49 2.69-1.1 3.99-1.66 2.57-1.16 5.17-2.16 7.89-2.05 2.72.1 5.39 1.21 7.92 2.53-2.18-1.83-4.82-3.34-7.83-3.69-1.5-.19-3.03 0-4.47.35-1.44.37-2.8.93-4.12 1.5-2.62 1.18-5.12 2.43-7.84 2.77-2.7.37-5.5-.32-8.13-1.45 2.32 1.67 5.22 2.79 8.24 2.61z"></path></g></svg>